<svg xmlns="http://www.w3.org/2000/svg" width="540" height="240" viewBox="0 0 540 240"><rect width="540" height="240" fill="#ecfeff"/><text x="14" y="22" font-family="serif" font-size="14" fill="#1f2937">Bear / Base / Bull 三场景对比 (E vs g vs wacc)</text><rect x="60.0" y="167.5" width="36.2" height="32.5" fill="#d97706"/><rect x="98.2" y="198.4" width="36.2" height="1.6" fill="#0e7490"/><rect x="136.4" y="186.6" width="36.2" height="13.4" fill="#c44536"/><text x="117.3" y="225" font-size="11" fill="#1f2937" text-anchor="middle">bear</text><rect x="212.7" y="115.8" width="36.2" height="84.2" fill="#d97706"/><rect x="250.9" y="192.1" width="36.2" height="7.9" fill="#0e7490"/><rect x="289.1" y="186.2" width="36.2" height="13.8" fill="#c44536"/><text x="270.0" y="225" font-size="11" fill="#1f2937" text-anchor="middle">base</text><rect x="365.5" y="40.0" width="36.2" height="160.0" fill="#d97706"/><rect x="403.6" y="185.7" width="36.2" height="14.3" fill="#0e7490"/><rect x="441.8" y="185.9" width="36.2" height="14.1" fill="#c44536"/><text x="422.7" y="225" font-size="11" fill="#1f2937" text-anchor="middle">bull</text><rect x="340" y="40" width="12" height="12" fill="#d97706"/><text x="356" y="50" font-size="10" fill="#1f2937">E</text><rect x="400" y="40" width="12" height="12" fill="#0e7490"/><text x="416" y="50" font-size="10" fill="#1f2937">g</text><rect x="460" y="40" width="12" height="12" fill="#c44536"/><text x="476" y="50" font-size="10" fill="#1f2937">wacc</text></svg>