<svg xmlns="http://www.w3.org/2000/svg" width="540" height="320" viewBox="0 0 540 320"><rect width="540" height="320" fill="#fef3c7"/><text x="14" y="22" font-family="serif" font-size="14" fill="#1f2937">敏感性分析: g × WACC → fair value</text><rect x="60.0" y="50.0" width="87.0" height="47.0" fill="rgb(140,130,81)"/><text x="104.0" y="78.0" font-size="10" font-family="monospace" fill="#fff" text-anchor="middle">13</text><rect x="148.0" y="50.0" width="87.0" height="47.0" fill="rgb(165,126,57)"/><text x="192.0" y="78.0" font-size="10" font-family="monospace" fill="#fff" text-anchor="middle">12</text><rect x="236.0" y="50.0" width="87.0" height="47.0" fill="rgb(185,123,37)"/><text x="280.0" y="78.0" font-size="10" font-family="monospace" fill="#fff" text-anchor="middle">11</text><rect x="324.0" y="50.0" width="87.0" height="47.0" fill="rgb(202,121,20)"/><text x="368.0" y="78.0" font-size="10" font-family="monospace" fill="#fff" text-anchor="middle">10</text><rect x="412.0" y="50.0" width="87.0" height="47.0" fill="rgb(217,119,6)"/><text x="456.0" y="78.0" font-size="10" font-family="monospace" fill="#fff" text-anchor="middle">9</text><rect x="60.0" y="98.0" width="87.0" height="47.0" fill="rgb(117,133,104)"/><text x="104.0" y="126.0" font-size="10" font-family="monospace" fill="#fff" text-anchor="middle">14</text><rect x="148.0" y="98.0" width="87.0" height="47.0" fill="rgb(145,129,77)"/><text x="192.0" y="126.0" font-size="10" font-family="monospace" fill="#fff" text-anchor="middle">13</text><rect x="236.0" y="98.0" width="87.0" height="47.0" fill="rgb(167,126,54)"/><text x="280.0" y="126.0" font-size="10" font-family="monospace" fill="#fff" text-anchor="middle">12</text><rect x="324.0" y="98.0" width="87.0" height="47.0" fill="rgb(187,123,35)"/><text x="368.0" y="126.0" font-size="10" font-family="monospace" fill="#fff" text-anchor="middle">11</text><rect x="412.0" y="98.0" width="87.0" height="47.0" fill="rgb(203,120,18)"/><text x="456.0" y="126.0" font-size="10" font-family="monospace" fill="#fff" text-anchor="middle">10</text><rect x="60.0" y="146.0" width="87.0" height="47.0" fill="rgb(89,137,131)"/><text x="104.0" y="174.0" font-size="10" font-family="monospace" fill="#fff" text-anchor="middle">16</text><rect x="148.0" y="146.0" width="87.0" height="47.0" fill="rgb(122,133,99)"/><text x="192.0" y="174.0" font-size="10" font-family="monospace" fill="#fff" text-anchor="middle">14</text><rect x="236.0" y="146.0" width="87.0" height="47.0" fill="rgb(148,129,73)"/><text x="280.0" y="174.0" font-size="10" font-family="monospace" fill="#fff" text-anchor="middle">13</text><rect x="324.0" y="146.0" width="87.0" height="47.0" fill="rgb(170,125,51)"/><text x="368.0" y="174.0" font-size="10" font-family="monospace" fill="#fff" text-anchor="middle">12</text><rect x="412.0" y="146.0" width="87.0" height="47.0" fill="rgb(189,123,33)"/><text x="456.0" y="174.0" font-size="10" font-family="monospace" fill="#fff" text-anchor="middle">11</text><rect x="60.0" y="194.0" width="87.0" height="47.0" fill="rgb(58,142,162)"/><text x="104.0" y="222.0" font-size="10" font-family="monospace" fill="#fff" text-anchor="middle">17</text><rect x="148.0" y="194.0" width="87.0" height="47.0" fill="rgb(96,136,125)"/><text x="192.0" y="222.0" font-size="10" font-family="monospace" fill="#fff" text-anchor="middle">15</text><rect x="236.0" y="194.0" width="87.0" height="47.0" fill="rgb(127,132,94)"/><text x="280.0" y="222.0" font-size="10" font-family="monospace" fill="#fff" text-anchor="middle">14</text><rect x="324.0" y="194.0" width="87.0" height="47.0" fill="rgb(152,128,70)"/><text x="368.0" y="222.0" font-size="10" font-family="monospace" fill="#fff" text-anchor="middle">12</text><rect x="412.0" y="194.0" width="87.0" height="47.0" fill="rgb(173,125,49)"/><text x="456.0" y="222.0" font-size="10" font-family="monospace" fill="#fff" text-anchor="middle">11</text><rect x="60.0" y="242.0" width="87.0" height="47.0" fill="rgb(22,148,199)"/><text x="104.0" y="270.0" font-size="10" font-family="monospace" fill="#fff" text-anchor="middle">19</text><rect x="148.0" y="242.0" width="87.0" height="47.0" fill="rgb(67,141,154)"/><text x="192.0" y="270.0" font-size="10" font-family="monospace" fill="#fff" text-anchor="middle">17</text><rect x="236.0" y="242.0" width="87.0" height="47.0" fill="rgb(102,135,119)"/><text x="280.0" y="270.0" font-size="10" font-family="monospace" fill="#fff" text-anchor="middle">15</text><rect x="324.0" y="242.0" width="87.0" height="47.0" fill="rgb(131,131,90)"/><text x="368.0" y="270.0" font-size="10" font-family="monospace" fill="#fff" text-anchor="middle">13</text><rect x="412.0" y="242.0" width="87.0" height="47.0" fill="rgb(155,128,66)"/><text x="456.0" y="270.0" font-size="10" font-family="monospace" fill="#fff" text-anchor="middle">12</text><text x="50" y="78.0" font-size="10" fill="#1f2937" text-anchor="end">-16%</text><text x="50" y="126.0" font-size="10" fill="#1f2937" text-anchor="end">-14%</text><text x="50" y="174.0" font-size="10" fill="#1f2937" text-anchor="end">-12%</text><text x="50" y="222.0" font-size="10" fill="#1f2937" text-anchor="end">-10%</text><text x="50" y="270.0" font-size="10" fill="#1f2937" text-anchor="end">-9%</text><text x="104.0" y="48" font-size="10" fill="#1f2937" text-anchor="middle">14%</text><text x="192.0" y="48" font-size="10" fill="#1f2937" text-anchor="middle">17%</text><text x="280.0" y="48" font-size="10" fill="#1f2937" text-anchor="middle">20%</text><text x="368.0" y="48" font-size="10" fill="#1f2937" text-anchor="middle">23%</text><text x="456.0" y="48" font-size="10" fill="#1f2937" text-anchor="middle">26%</text></svg>