<svg xmlns="http://www.w3.org/2000/svg" width="540" height="320" viewBox="0 0 540 320"><rect width="540" height="320" fill="#fef3c7"/><text x="14" y="22" font-family="serif" font-size="14" fill="#1f2937">敏感性分析: g × WACC → fair value</text><rect x="60.0" y="50.0" width="61.9" height="33.3" fill="rgb(124,132,97)"/><text x="91.4" y="71.1" font-size="10" font-family="monospace" fill="#fff" text-anchor="middle">25</text><rect x="122.9" y="50.0" width="61.9" height="33.3" fill="rgb(145,129,77)"/><text x="154.3" y="71.1" font-size="10" font-family="monospace" fill="#fff" text-anchor="middle">24</text><rect x="185.7" y="50.0" width="61.9" height="33.3" fill="rgb(163,127,59)"/><text x="217.1" y="71.1" font-size="10" font-family="monospace" fill="#fff" text-anchor="middle">23</text><rect x="248.6" y="50.0" width="61.9" height="33.3" fill="rgb(178,124,43)"/><text x="280.0" y="71.1" font-size="10" font-family="monospace" fill="#fff" text-anchor="middle">22</text><rect x="311.4" y="50.0" width="61.9" height="33.3" fill="rgb(193,122,29)"/><text x="342.9" y="71.1" font-size="10" font-family="monospace" fill="#fff" text-anchor="middle">21</text><rect x="374.3" y="50.0" width="61.9" height="33.3" fill="rgb(205,120,17)"/><text x="405.7" y="71.1" font-size="10" font-family="monospace" fill="#fff" text-anchor="middle">20</text><rect x="437.1" y="50.0" width="61.9" height="33.3" fill="rgb(217,119,6)"/><text x="468.6" y="71.1" font-size="10" font-family="monospace" fill="#fff" text-anchor="middle">19</text><rect x="60.0" y="84.3" width="61.9" height="33.3" fill="rgb(113,134,108)"/><text x="91.4" y="105.4" font-size="10" font-family="monospace" fill="#fff" text-anchor="middle">26</text><rect x="122.9" y="84.3" width="61.9" height="33.3" fill="rgb(135,131,86)"/><text x="154.3" y="105.4" font-size="10" font-family="monospace" fill="#fff" text-anchor="middle">24</text><rect x="185.7" y="84.3" width="61.9" height="33.3" fill="rgb(155,128,67)"/><text x="217.1" y="105.4" font-size="10" font-family="monospace" fill="#fff" text-anchor="middle">23</text><rect x="248.6" y="84.3" width="61.9" height="33.3" fill="rgb(172,125,50)"/><text x="280.0" y="105.4" font-size="10" font-family="monospace" fill="#fff" text-anchor="middle">22</text><rect x="311.4" y="84.3" width="61.9" height="33.3" fill="rgb(187,123,35)"/><text x="342.9" y="105.4" font-size="10" font-family="monospace" fill="#fff" text-anchor="middle">21</text><rect x="374.3" y="84.3" width="61.9" height="33.3" fill="rgb(200,121,22)"/><text x="405.7" y="105.4" font-size="10" font-family="monospace" fill="#fff" text-anchor="middle">20</text><rect x="437.1" y="84.3" width="61.9" height="33.3" fill="rgb(212,119,10)"/><text x="468.6" y="105.4" font-size="10" font-family="monospace" fill="#fff" text-anchor="middle">19</text><rect x="60.0" y="118.6" width="61.9" height="33.3" fill="rgb(100,136,121)"/><text x="91.4" y="139.7" font-size="10" font-family="monospace" fill="#fff" text-anchor="middle">27</text><rect x="122.9" y="118.6" width="61.9" height="33.3" fill="rgb(124,132,97)"/><text x="154.3" y="139.7" font-size="10" font-family="monospace" fill="#fff" text-anchor="middle">25</text><rect x="185.7" y="118.6" width="61.9" height="33.3" fill="rgb(146,129,76)"/><text x="217.1" y="139.7" font-size="10" font-family="monospace" fill="#fff" text-anchor="middle">24</text><rect x="248.6" y="118.6" width="61.9" height="33.3" fill="rgb(164,126,57)"/><text x="280.0" y="139.7" font-size="10" font-family="monospace" fill="#fff" text-anchor="middle">23</text><rect x="311.4" y="118.6" width="61.9" height="33.3" fill="rgb(180,124,41)"/><text x="342.9" y="139.7" font-size="10" font-family="monospace" fill="#fff" text-anchor="middle">21</text><rect x="374.3" y="118.6" width="61.9" height="33.3" fill="rgb(195,122,27)"/><text x="405.7" y="139.7" font-size="10" font-family="monospace" fill="#fff" text-anchor="middle">20</text><rect x="437.1" y="118.6" width="61.9" height="33.3" fill="rgb(207,120,14)"/><text x="468.6" y="139.7" font-size="10" font-family="monospace" fill="#fff" text-anchor="middle">20</text><rect x="60.0" y="152.9" width="61.9" height="33.3" fill="rgb(85,138,136)"/><text x="91.4" y="174.0" font-size="10" font-family="monospace" fill="#fff" text-anchor="middle">28</text><rect x="122.9" y="152.9" width="61.9" height="33.3" fill="rgb(112,134,109)"/><text x="154.3" y="174.0" font-size="10" font-family="monospace" fill="#fff" text-anchor="middle">26</text><rect x="185.7" y="152.9" width="61.9" height="33.3" fill="rgb(135,131,86)"/><text x="217.1" y="174.0" font-size="10" font-family="monospace" fill="#fff" text-anchor="middle">24</text><rect x="248.6" y="152.9" width="61.9" height="33.3" fill="rgb(156,128,66)"/><text x="280.0" y="174.0" font-size="10" font-family="monospace" fill="#fff" text-anchor="middle">23</text><rect x="311.4" y="152.9" width="61.9" height="33.3" fill="rgb(173,125,48)"/><text x="342.9" y="174.0" font-size="10" font-family="monospace" fill="#fff" text-anchor="middle">22</text><rect x="374.3" y="152.9" width="61.9" height="33.3" fill="rgb(189,123,33)"/><text x="405.7" y="174.0" font-size="10" font-family="monospace" fill="#fff" text-anchor="middle">21</text><rect x="437.1" y="152.9" width="61.9" height="33.3" fill="rgb(202,121,20)"/><text x="468.6" y="174.0" font-size="10" font-family="monospace" fill="#fff" text-anchor="middle">20</text><rect x="60.0" y="187.1" width="61.9" height="33.3" fill="rgb(67,141,153)"/><text x="91.4" y="208.3" font-size="10" font-family="monospace" fill="#fff" text-anchor="middle">29</text><rect x="122.9" y="187.1" width="61.9" height="33.3" fill="rgb(98,136,123)"/><text x="154.3" y="208.3" font-size="10" font-family="monospace" fill="#fff" text-anchor="middle">27</text><rect x="185.7" y="187.1" width="61.9" height="33.3" fill="rgb(124,132,97)"/><text x="217.1" y="208.3" font-size="10" font-family="monospace" fill="#fff" text-anchor="middle">25</text><rect x="248.6" y="187.1" width="61.9" height="33.3" fill="rgb(146,129,75)"/><text x="280.0" y="208.3" font-size="10" font-family="monospace" fill="#fff" text-anchor="middle">24</text><rect x="311.4" y="187.1" width="61.9" height="33.3" fill="rgb(165,126,56)"/><text x="342.9" y="208.3" font-size="10" font-family="monospace" fill="#fff" text-anchor="middle">22</text><rect x="374.3" y="187.1" width="61.9" height="33.3" fill="rgb(182,124,40)"/><text x="405.7" y="208.3" font-size="10" font-family="monospace" fill="#fff" text-anchor="middle">21</text><rect x="437.1" y="187.1" width="61.9" height="33.3" fill="rgb(196,121,25)"/><text x="468.6" y="208.3" font-size="10" font-family="monospace" fill="#fff" text-anchor="middle">20</text><rect x="60.0" y="221.4" width="61.9" height="33.3" fill="rgb(46,144,174)"/><text x="91.4" y="242.6" font-size="10" font-family="monospace" fill="#fff" text-anchor="middle">30</text><rect x="122.9" y="221.4" width="61.9" height="33.3" fill="rgb(81,139,139)"/><text x="154.3" y="242.6" font-size="10" font-family="monospace" fill="#fff" text-anchor="middle">28</text><rect x="185.7" y="221.4" width="61.9" height="33.3" fill="rgb(110,134,111)"/><text x="217.1" y="242.6" font-size="10" font-family="monospace" fill="#fff" text-anchor="middle">26</text><rect x="248.6" y="221.4" width="61.9" height="33.3" fill="rgb(135,131,86)"/><text x="280.0" y="242.6" font-size="10" font-family="monospace" fill="#fff" text-anchor="middle">25</text><rect x="311.4" y="221.4" width="61.9" height="33.3" fill="rgb(156,128,66)"/><text x="342.9" y="242.6" font-size="10" font-family="monospace" fill="#fff" text-anchor="middle">23</text><rect x="374.3" y="221.4" width="61.9" height="33.3" fill="rgb(174,125,48)"/><text x="405.7" y="242.6" font-size="10" font-family="monospace" fill="#fff" text-anchor="middle">22</text><rect x="437.1" y="221.4" width="61.9" height="33.3" fill="rgb(190,122,32)"/><text x="468.6" y="242.6" font-size="10" font-family="monospace" fill="#fff" text-anchor="middle">21</text><rect x="60.0" y="255.7" width="61.9" height="33.3" fill="rgb(22,148,199)"/><text x="91.4" y="276.9" font-size="10" font-family="monospace" fill="#fff" text-anchor="middle">32</text><rect x="122.9" y="255.7" width="61.9" height="33.3" fill="rgb(62,142,159)"/><text x="154.3" y="276.9" font-size="10" font-family="monospace" fill="#fff" text-anchor="middle">29</text><rect x="185.7" y="255.7" width="61.9" height="33.3" fill="rgb(94,137,126)"/><text x="217.1" y="276.9" font-size="10" font-family="monospace" fill="#fff" text-anchor="middle">27</text><rect x="248.6" y="255.7" width="61.9" height="33.3" fill="rgb(122,133,99)"/><text x="280.0" y="276.9" font-size="10" font-family="monospace" fill="#fff" text-anchor="middle">25</text><rect x="311.4" y="255.7" width="61.9" height="33.3" fill="rgb(145,129,76)"/><text x="342.9" y="276.9" font-size="10" font-family="monospace" fill="#fff" text-anchor="middle">24</text><rect x="374.3" y="255.7" width="61.9" height="33.3" fill="rgb(165,126,56)"/><text x="405.7" y="276.9" font-size="10" font-family="monospace" fill="#fff" text-anchor="middle">22</text><rect x="437.1" y="255.7" width="61.9" height="33.3" fill="rgb(182,124,39)"/><text x="468.6" y="276.9" font-size="10" font-family="monospace" fill="#fff" text-anchor="middle">21</text><text x="50" y="71.1" font-size="10" fill="#1f2937" text-anchor="end">-2%</text><text x="50" y="105.4" font-size="10" fill="#1f2937" text-anchor="end">-0%</text><text x="50" y="139.7" font-size="10" fill="#1f2937" text-anchor="end">+0%</text><text x="50" y="174.0" font-size="10" fill="#1f2937" text-anchor="end">+2%</text><text x="50" y="208.3" font-size="10" fill="#1f2937" text-anchor="end">+2%</text><text x="50" y="242.6" font-size="10" fill="#1f2937" text-anchor="end">+4%</text><text x="50" y="276.9" font-size="10" fill="#1f2937" text-anchor="end">+4%</text><text x="91.4" y="48" font-size="10" fill="#1f2937" text-anchor="middle">2%</text><text x="154.3" y="48" font-size="10" fill="#1f2937" text-anchor="middle">3%</text><text x="217.1" y="48" font-size="10" fill="#1f2937" text-anchor="middle">4%</text><text x="280.0" y="48" font-size="10" fill="#1f2937" text-anchor="middle">5%</text><text x="342.9" y="48" font-size="10" fill="#1f2937" text-anchor="middle">6%</text><text x="405.7" y="48" font-size="10" fill="#1f2937" text-anchor="middle">7%</text><text x="468.6" y="48" font-size="10" fill="#1f2937" text-anchor="middle">8%</text></svg>